<svg xmlns="http://www.w3.org/2000/svg" width="2260.948" height="993.661" viewBox="0 0 2260.948 993.661">
  <g id="UniPorn" transform="translate(54.807 -192.317)">
    <path id="Path_240" data-name="Path 240" d="M151.037,866.612a432.684,432.684,0,0,0,32.105-58.325q16.056-44.094,46.309-129.809t75.12-215.162q38.28-110.243,61.947-176.754t33.959-91.4l92.2-2.846-93.027,258.2q-37.46,105.993-67.3,190.268t-53.3,149.014q-10.3,28.439-19.552,50.5-9.264,22.04-17.5,37.7-4.119,7.815-11.731,19.559t-18.317,27.383q-12.349,17.072-39.515,27.742A135.577,135.577,0,0,1,159.27,957.3a78.738,78.738,0,0,1-11.937,2.488L-7.026,956.947q-16.467-13.519-31.283-39.833-27.583-49.075-9.056-99.577,9.464-27.042,22.64-64.372T4.911,667.453l29.636-86.064q11.935-36.274,19.553-57.97T65.008,493.19q76.147-222.623,106.609-297.317l91.381-.71q-26.763,71.849-89.323,248.593Q111.1,620.515,11.91,902.888q37.449,34.843,71.21,28.451Q113.576,925.639,151.037,866.612Z" transform="translate(0)" fill="#ebf5ee"/>
    <path id="Path_241" data-name="Path 241" d="M456.206,700.658Q643.9,200.639,657.489,199.914q13.989-2.133,48.16,32.01Q692.47,261.8,657.489,353.551,636.9,406.9,582.985,559.113T441.8,961.7q-19.353-15.654-32.107-42.677-10.3-8.537-10.7-39.12-1.649-81.8,1.234-154.705t10.7-138.344q4.525-39.825,13.377-92.109T446.329,375.6q-34.577,94.607-85.618,239.345T240.518,957.432q-16.883-13.519-27.992-34.854-24.7-44.809-8.231-89.621,34.162-93.889,72.034-193.825t80.265-208.761q92.2-234.009,99.2-234.723,14.4-2.135,48.57,32.007-16.052,66.865-29.636,157.195Q447.563,568.359,456.206,700.658Z" transform="translate(99.702 1.649)" fill="#ebf5ee"/>
    <path id="Path_242" data-name="Path 242" d="M665.061,248.545Q687.29,194.5,698.4,193.777q10.7-1.418,29.225,10.669A31.4,31.4,0,0,1,733.185,208q2.674,2.133,5.557,4.268c.547.956,1.094,1.422,1.646,1.422a2.576,2.576,0,0,1,1.648.712l.822.71q-7.408,16.374-19.756,47.657-12.349,31.306-29.638,76.818-20.99,54.782-76.149,210.184Q562.151,705.193,472.835,961.25q-15.647-13.519-28.4-36.276-25.1-44.809-8.233-91.043,26.338-71.851,62.567-165.73t83.147-212.673q23.462-59.748,44.044-110.96T665.061,248.545Z" transform="translate(196.559 0.674)" fill="#ebf5ee"/>
    <path id="Path_243" data-name="Path 243" d="M882.045,213.516q20.168,12.1,32.108,38.41,9.88,23.471,13.171,43.386,5.345,24.909,3.294,56.9-4.534,74.686-48.573,182.8-8.237,20.638-33.339,58.325-14.818,22.053-29.224,39.832a312.642,312.642,0,0,1-28.814,31.3q-35.811,35.577-60.509,32.008-30.466-2.833-41.985-61.881-39.514,110.958-68.123,192.757-28.612,81.783-47.13,135.143-16.054-12.8-27.99-35.564-24.7-44.109-8.233-88.909,26.336-72.553,62.979-167.864t84.381-214.806l76.562-189.913q4.939-12.085,9.879-21.693t9.467-17.428l-.412-25.6q17.287-9.952,57.216-1.422a227.767,227.767,0,0,1,26.962,6.4A84.347,84.347,0,0,1,882.045,213.516ZM781.2,632.463q28.805-45.513,55.569-125.187,17.288-53.346,27.166-83.221t11.937-37.7Q894.8,323.773,892.339,301q-5.357-51.915-22.641-68.282-12.762-12.808-33.751-.712c.27.477.545.712.822.712q-7,16.368-19.141,46.586-12.147,30.243-29.43,75.04-7,18.507-26.756,73.619-19.757,55.129-52.687,148.3-11.113,51.929-3.292,80.375,3.7,12.8,10.7,18.493a20.449,20.449,0,0,0,17.288,3.556Q754.85,673.729,781.2,632.463Z" transform="translate(234.664 1.562)" fill="#ebf5ee"/>
    <path id="Path_244" data-name="Path 244" d="M963.9,270.544q49.8-76.819,116.077-76.818,53.5,0,83.971,25.6,23.866,19.925,31.283,56.9,5.343,26.327,2.469,56.9-.829,7.835-1.851,14.225a74.245,74.245,0,0,1-2.676,11.381q-11.942,32.008-52.07,144.392T1031.818,812.543q-9.057,24.889-17.083,44.454T999.3,890.783q-3.705,7.1-10.5,17.425-6.792,10.3-16.261,23.828-11.113,15.636-35.4,25.607a194.942,194.942,0,0,1-22.226,6.4L777.849,961.2a126.993,126.993,0,0,1-15.229-15.647,108.769,108.769,0,0,1-12.762-19.917q-24.7-44.11-8.231-88.91,26.336-72.553,53.51-145.1t55.98-147.948q31.692-82.5,54.746-140.478,23.046-57.962,37.869-92.821a162.935,162.935,0,0,1,11.524-25.608Q962.253,271.266,963.9,270.544Zm110.727,226.189q38.28-96.724,66.683-166.441a128.694,128.694,0,0,0,1.234-46.945q-7-46.227-47.338-46.232-55.163,0-91.378,88.2l-1.646,4.98a33.008,33.008,0,0,0-1.443,3.2q-1.029,2.5-3.085,8.18l-5.35,13.514q-14,36.279-63.391,175.688T794.725,912.832q33.341,31.29,62.979,25.6,26.336-4.984,60.509-57.612a455.618,455.618,0,0,0,28.4-52.635q25.518-69,57.421-151.505T1074.628,496.733Z" transform="translate(314.005 0.725)" fill="#ebf5ee"/>
    <path id="Path_245" data-name="Path 245" d="M1367.929,351.229q-4.114,71.851-48.979,182.8a244.4,244.4,0,0,1-17.083,33.076q-11.324,18.855-28.2,42.32,17.7,24.909,27.99,64.016,11.12,39.128,13.585,86.065a465.618,465.618,0,0,1-5.762,96.735q-8.644,52.63-28.4,96.024-30.461,66.147-39.514,118.073-7.826,41.243-2.47,71.128,4.523,22.038,14,34.141a30.567,30.567,0,0,0,4.939,5.69,54.7,54.7,0,0,0,4.531,3.556q-19.757-7.117-40.753-29.873-41.581-43.4-48.572-118.073-5.767-69.718,27.99-150.08,5.343-12.106,12.967-28.452Q1221.8,842,1232.1,821.388q11.113-22.058,18.519-37.344t10.7-23.115q12.758-28.439,9.879-64.016-2.881-33.426-20.582-58.325-42.812,50.513-72.856,55.481-38.7,7.117-52.276-61.171-39.516,110.958-68.123,192.757-28.612,81.783-47.54,135.143-15.647-14.239-27.581-35.564-24.7-44.109-8.231-88.909,26.336-72.553,63.185-167.864,36.833-95.306,84.175-214.806,21.813-54.046,40.751-101.358,18.928-47.294,35.809-87.843a281.412,281.412,0,0,1,19.349-39.833l-.412-24.893q16.454-9.237,56.8-2.134,31.281,6.4,45.691,14.936,20.165,12.106,32.1,38.411,4.53,11.386,7.824,22.049t5.347,20.625A249.527,249.527,0,0,1,1367.929,351.229ZM1164.59,613.692q-16.47,4.986-24.7,22.762,2.051,21.338,9.055,32.007t19.346,9.246q25.931-2.831,58.859-61.169Q1198.753,600.184,1164.59,613.692Zm60.918-35.563a45.764,45.764,0,0,1,18.938,4.268q7.81-17.072,15.022-36.277t14.2-39.83q17.7-53.348,27.58-83.221t11.94-37.7q18.521-62.585,16.05-85.353-5.766-51.915-22.228-68.284-13.18-12.806-33.751-.713h.409q-14.407,34.143-48.16,121.629-7,18.507-26.755,73.621t-52.687,148.3q-2.062,9.968-3.5,18.849-1.445,8.9-2.263,17.425Q1176.115,577.423,1225.508,578.13Z" transform="translate(410.119 1.126)" fill="#ebf5ee"/>
    <path id="Path_246" data-name="Path 246" d="M1460.477,700.658q187.7-500.019,201.282-500.744,13.989-2.133,48.161,32.01-13.178,29.873-48.161,121.628-20.586,53.346-74.5,205.562T1446.07,961.7q-19.35-15.654-32.1-42.677-10.3-8.537-10.7-39.12-1.652-81.8,1.234-154.705t10.7-138.344q4.523-39.825,13.379-92.109T1450.6,375.6q-34.575,94.607-85.617,239.345T1244.79,957.432q-16.886-13.519-27.992-34.854-24.7-44.809-8.231-89.621,34.162-93.889,72.034-193.825t80.265-208.761q92.2-234.009,99.2-234.723,14.4-2.135,48.572,32.007Q1492.585,294.519,1479,384.849,1451.83,568.359,1460.477,700.658Z" transform="translate(496.22 1.649)" fill="#ebf5ee"/>
  </g>
</svg>
